<svg width="120" height="75" viewBox="0 0 120 75" fill="none" xmlns="http://www.w3.org/2000/svg">
<path d="M26.56 15.92L16.84 34.72V44H10V34.72L0.28 15.92H8.04L13.48 27.68L18.88 15.92H26.56ZM51.3559 21.68V44H44.5159V40.96C43.8226 41.9467 42.8759 42.7467 41.6759 43.36C40.5026 43.9467 39.1959 44.24 37.7559 44.24C36.0493 44.24 34.5426 43.8667 33.2359 43.12C31.9293 42.3467 30.9159 41.24 30.1959 39.8C29.4759 38.36 29.1159 36.6667 29.1159 34.72V21.68H35.9159V33.8C35.9159 35.2933 36.3026 36.4533 37.0759 37.28C37.8493 38.1067 38.8893 38.52 40.1959 38.52C41.5293 38.52 42.5826 38.1067 43.3559 37.28C44.1293 36.4533 44.5159 35.2933 44.5159 33.8V21.68H51.3559ZM54.9091 32.8C54.9091 30.5067 55.3357 28.4933 56.1891 26.76C57.0691 25.0267 58.2557 23.6933 59.7491 22.76C61.2424 21.8267 62.9091 21.36 64.7491 21.36C66.2157 21.36 67.5491 21.6667 68.7491 22.28C69.9757 22.8933 70.9357 23.72 71.6291 24.76V14.4H78.4691V44H71.6291V40.8C70.9891 41.8667 70.0691 42.72 68.8691 43.36C67.6957 44 66.3224 44.32 64.7491 44.32C62.9091 44.32 61.2424 43.8533 59.7491 42.92C58.2557 41.96 57.0691 40.6133 56.1891 38.88C55.3357 37.12 54.9091 35.0933 54.9091 32.8ZM71.6291 32.84C71.6291 31.1333 71.1491 29.7867 70.1891 28.8C69.2557 27.8133 68.1091 27.32 66.7491 27.32C65.3891 27.32 64.2291 27.8133 63.2691 28.8C62.3357 29.76 61.8691 31.0933 61.8691 32.8C61.8691 34.5067 62.3357 35.8667 63.2691 36.88C64.2291 37.8667 65.3891 38.36 66.7491 38.36C68.1091 38.36 69.2557 37.8667 70.1891 36.88C71.1491 35.8933 71.6291 34.5467 71.6291 32.84ZM97.1375 21.44C99.6975 21.44 101.751 22.2933 103.298 24C104.844 25.68 105.618 28 105.618 30.96V44H98.8175V31.88C98.8175 30.3867 98.4308 29.2267 97.6575 28.4C96.8842 27.5733 95.8442 27.16 94.5375 27.16C93.2308 27.16 92.1908 27.5733 91.4175 28.4C90.6442 29.2267 90.2575 30.3867 90.2575 31.88V44H83.4175V14.4H90.2575V24.68C90.9508 23.6933 91.8975 22.9067 93.0975 22.32C94.2975 21.7333 95.6442 21.44 97.1375 21.44ZM113.811 19.36C112.611 19.36 111.624 19.0133 110.851 18.32C110.104 17.6 109.731 16.72 109.731 15.68C109.731 14.6133 110.104 13.7333 110.851 13.04C111.624 12.32 112.611 11.96 113.811 11.96C114.984 11.96 115.944 12.32 116.691 13.04C117.464 13.7333 117.851 14.6133 117.851 15.68C117.851 16.72 117.464 17.6 116.691 18.32C115.944 19.0133 114.984 19.36 113.811 19.36ZM117.211 21.68V44H110.371V21.68H117.211Z" fill="white"/>
<path d="M15.1 71L10.95 63.875H8.2V71H5.925V53.575H11.55C12.8667 53.575 13.975 53.8 14.875 54.25C15.7917 54.7 16.475 55.3083 16.925 56.075C17.375 56.8417 17.6 57.7167 17.6 58.7C17.6 59.9 17.25 60.9583 16.55 61.875C15.8667 62.7917 14.8333 63.4 13.45 63.7L17.825 71H15.1ZM8.2 62.05H11.55C12.7833 62.05 13.7083 61.75 14.325 61.15C14.9417 60.5333 15.25 59.7167 15.25 58.7C15.25 57.6667 14.9417 56.8667 14.325 56.3C13.725 55.7333 12.8 55.45 11.55 55.45H8.2V62.05ZM28.41 55.425V61.25H34.76V63.125H28.41V69.125H35.51V71H26.135V53.55H35.51V55.425H28.41ZM57.6523 71H55.3773L46.2273 57.125V71H43.9523V53.55H46.2273L55.3773 67.4V53.55H57.6523V71ZM77.2555 53.575V55.425H72.5055V71H70.2305V55.425H65.4555V53.575H77.2555ZM95.3559 67.125H87.7559L86.3559 71H83.9559L90.2559 53.675H92.8809L99.1559 71H96.7559L95.3559 67.125ZM94.7059 65.275L91.5559 56.475L88.4059 65.275H94.7059ZM109.177 69.15H115.277V71H106.902V53.575H109.177V69.15Z" fill="white"/>
</svg>
