<?xml version="1.0" standalone="no"?>
<!DOCTYPE svg PUBLIC "-//W3C//DTD SVG 20010904//EN"
 "http://www.w3.org/TR/2001/REC-SVG-20010904/DTD/svg10.dtd">
<svg version="1.0" xmlns="http://www.w3.org/2000/svg"
 width="512.000000pt" height="512.000000pt" viewBox="0 0 512.000000 512.000000"
 preserveAspectRatio="xMidYMid meet">

<g transform="translate(0.000000,512.000000) scale(0.100000,-0.100000)"
fill="#000000" stroke="none">
<path d="M896 5020 c-97 -38 -176 -149 -176 -249 0 -100 64 -204 151 -248 24
-12 161 -74 303 -137 148 -66 272 -128 289 -143 38 -36 267 -378 283 -423 8
-20 13 -85 14 -154 l0 -120 -67 98 c-73 108 -128 155 -209 181 -44 14 -111 16
-515 13 l-464 -3 -67 -32 c-37 -17 -87 -50 -112 -73 -59 -54 -113 -161 -122
-240 -4 -39 -11 -60 -20 -60 -21 0 -76 -52 -90 -87 -11 -26 -14 -123 -14 -475
0 -264 5 -461 11 -487 9 -42 370 -836 450 -991 21 -41 73 -120 115 -175 129
-170 180 -273 207 -417 l15 -78 -79 0 -79 0 0 -320 0 -320 880 0 880 0 0 320
0 320 -80 0 -80 0 0 68 c0 118 32 232 130 470 51 122 95 222 99 222 3 0 24
-26 46 -57 60 -85 200 -220 301 -292 150 -106 340 -187 534 -228 117 -24 380
-24 502 0 483 96 872 433 1031 893 56 163 71 257 71 444 0 189 -15 283 -70
442 -41 117 -78 194 -142 293 -199 310 -522 528 -890 602 -120 24 -384 24
-504 0 -233 -47 -442 -147 -630 -304 l-77 -64 -3 428 c-3 417 -4 429 -25 483
-21 50 -534 771 -601 844 -36 38 -118 76 -166 76 -113 0 -202 -71 -240 -192
-4 -14 -46 -3 -318 88 -343 114 -379 120 -472 84z m446 -246 c174 -58 332
-115 350 -127 40 -26 428 -599 452 -666 14 -39 16 -122 16 -613 l0 -568 80 0
80 0 0 579 c0 549 -1 582 -20 642 -15 49 -71 141 -240 394 -201 302 -220 334
-220 373 0 72 70 118 121 79 19 -14 551 -743 576 -790 16 -29 18 -77 21 -549
l3 -517 -34 -53 c-93 -144 -166 -346 -193 -528 -34 -235 3 -506 99 -730 15
-35 14 -36 -94 -295 -60 -143 -118 -288 -130 -323 -28 -86 -48 -203 -49 -290
l0 -72 -562 2 -563 3 -7 60 c-20 160 -96 328 -224 497 -101 133 -103 136 -360
693 l-199 430 -3 439 -3 438 48 -7 c53 -8 125 -41 170 -79 16 -14 45 -53 64
-88 l34 -63 5 -235 c4 -137 11 -246 17 -261 19 -44 63 -88 162 -164 121 -91
182 -122 271 -137 223 -38 436 103 495 329 21 81 21 445 0 526 -43 165 -157
279 -322 322 -46 12 -133 15 -440 15 -428 0 -395 -7 -371 74 17 58 99 138 158
155 33 9 157 11 482 9 422 -3 437 -4 465 -24 27 -19 192 -253 254 -359 l29
-50 0 -222 0 -223 80 0 80 0 0 503 c-1 494 -1 503 -23 567 -29 84 -266 440
-331 497 -34 30 -110 69 -289 148 -355 158 -360 161 -380 194 -44 76 9 169 98
171 16 0 173 -48 347 -106z m2576 -1358 c367 -80 669 -313 836 -644 84 -168
121 -329 121 -532 0 -157 -12 -236 -56 -372 -58 -179 -154 -335 -293 -474
-175 -174 -386 -287 -631 -335 -91 -18 -339 -18 -430 0 -494 98 -868 472 -966
966 -21 103 -18 349 5 455 50 234 160 436 330 606 196 195 416 303 711 348 61
9 302 -3 373 -18z m-2748 -152 c39 -12 66 -29 106 -69 79 -78 86 -113 82 -378
-3 -200 -4 -215 -27 -257 -46 -89 -126 -146 -221 -157 -86 -10 -140 11 -266
104 -69 52 -116 93 -119 106 -2 12 -6 119 -8 237 -3 239 -11 275 -82 380 l-34
50 258 0 c206 0 268 -3 311 -16z m1150 -2864 l0 -160 -720 0 -720 0 0 160 0
160 720 0 720 0 0 -160z"/>
<path d="M3508 3266 c-101 -18 -195 -50 -293 -99 -104 -51 -208 -125 -198
-140 4 -7 27 -35 51 -64 l44 -51 52 39 c175 134 438 195 665 155 342 -60 611
-309 704 -651 31 -116 31 -316 -1 -435 -28 -100 -87 -225 -141 -297 l-39 -51
61 -52 61 -52 19 24 c139 173 227 424 227 648 0 211 -79 450 -203 616 -53 70
-183 196 -248 241 -98 68 -236 128 -364 159 -86 21 -303 26 -397 10z"/>
<path d="M2837 2848 c-226 -319 -259 -726 -85 -1072 53 -107 88 -156 177 -249
126 -132 257 -216 426 -274 321 -109 707 -40 973 174 l24 19 -52 61 -52 61
-51 -39 c-124 -94 -300 -156 -472 -166 -440 -25 -834 290 -911 728 -40 228 21
490 155 666 l40 52 -52 44 c-29 24 -57 47 -64 50 -7 5 -28 -16 -56 -55z"/>
<path d="M3768 2363 l-408 -408 -88 88 c-48 48 -92 87 -98 87 -13 0 -104 -92
-104 -105 0 -6 65 -75 145 -155 l145 -145 465 465 c256 256 465 470 465 475 0
13 -92 105 -105 105 -6 0 -193 -183 -417 -407z"/>
</g>
</svg>
