<svg width="40" height="40" viewBox="0 0 40 40" fill="none" xmlns="http://www.w3.org/2000/svg">
<g clip-path="url(#clip0_113_103)">
<circle cx="20" cy="20" r="20" fill="#2E3234"/>
<path d="M24.85 7.03125C22.7034 7.03125 20.6447 7.88398 19.1269 9.40185C17.609 10.9197 16.7562 12.9784 16.7562 15.125V19.6313H12.425C12.208 19.6313 12.0312 19.8063 12.0312 20.025V25.975C12.0312 26.192 12.2062 26.3688 12.425 26.3688H16.7562V40.3082C16.5375 40.3082 16.7562 40.5252 16.7562 40.3082H23.4938C23.4938 40.5269 23.7108 40.3082 23.4938 40.3082V26.3688H27.8635C28.0437 26.3688 28.2012 26.2463 28.245 26.0713L29.7325 20.1213C29.7471 20.0632 29.7483 20.0026 29.736 19.944C29.7237 19.8854 29.6982 19.8304 29.6614 19.7831C29.6246 19.7359 29.5775 19.6976 29.5237 19.6713C29.47 19.645 29.4109 19.6313 29.351 19.6313H23.4938V15.125C23.4938 14.9469 23.5288 14.7705 23.597 14.606C23.6651 14.4414 23.765 14.2919 23.891 14.166C24.0169 14.04 24.1664 13.9401 24.331 13.872C24.4955 13.8038 24.6719 13.7688 24.85 13.7688H29.4C29.617 13.7688 29.7937 13.5938 29.7937 13.375V7.425C29.7937 7.208 29.6187 7.03125 29.4 7.03125H24.85Z" fill="white"/>
</g>
<defs>
<clipPath id="clip0_113_103">
<rect width="40" height="40" fill="white"/>
</clipPath>
</defs>
</svg>