<?xml version="1.0" encoding="UTF-8" standalone="no"?>
<!-- Created with Inkscape (http://www.inkscape.org/) -->

<svg
   version="1.1"
   id="svg312"
   width="266.66666"
   height="266.66666"
   viewBox="0 0 266.66666 266.66666"
   sodipodi:docname="TruChitosanIcons_GMP.ai"
   xmlns:inkscape="http://www.inkscape.org/namespaces/inkscape"
   xmlns:sodipodi="http://sodipodi.sourceforge.net/DTD/sodipodi-0.dtd"
   xmlns="http://www.w3.org/2000/svg"
   xmlns:svg="http://www.w3.org/2000/svg">
  <defs
     id="defs316">
    <clipPath
       clipPathUnits="userSpaceOnUse"
       id="clipPath328">
      <path
         d="M 0,200 H 200 V 0 H 0 Z"
         id="path326" />
    </clipPath>
  </defs>
  <sodipodi:namedview
     id="namedview314"
     pagecolor="#505050"
     bordercolor="#eeeeee"
     borderopacity="1"
     inkscape:showpageshadow="0"
     inkscape:pageopacity="0"
     inkscape:pagecheckerboard="0"
     inkscape:deskcolor="#505050"
     showgrid="false" />
  <g
     id="g320"
     inkscape:groupmode="layer"
     inkscape:label="Page 1"
     transform="matrix(1.3333333,0,0,-1.3333333,0,266.66667)">
    <g
       id="g322">
      <g
         id="g324"
         clip-path="url(#clipPath328)">
        <g
           id="g330"
           transform="translate(145.0835,91.6928)">
          <path
             d="m 0,0 c 0.665,0 1.132,-0.008 1.598,0.001 2.544,0.051 5.1,-0.026 7.632,0.185 6.199,0.515 10.806,4.106 12.54,10.322 1.138,4.082 1.151,8.211 0.328,12.331 -0.553,2.768 -1.721,5.282 -3.699,7.364 -2.915,3.069 -6.633,4.245 -10.707,4.321 -5.608,0.105 -11.221,0.028 -16.831,0.023 -0.34,0 -0.679,-0.048 -0.998,-0.072 -0.245,-1.641 -0.168,-51.95 0.072,-52.779 H 0 Z m -76.081,20.957 c 0.068,0.246 0.122,0.352 0.122,0.458 0.006,3.179 -0.003,6.359 0.02,9.538 0.004,0.513 -0.202,0.81 -0.629,1.012 -1.167,0.551 -2.308,1.168 -3.506,1.64 -3.579,1.412 -7.31,1.997 -11.151,1.886 -2.72,-0.079 -5.365,-0.552 -7.887,-1.606 -4.621,-1.932 -7.88,-5.307 -10.169,-9.686 -2.358,-4.507 -3.164,-9.393 -3.384,-14.399 -0.115,-2.622 0.027,-5.242 0.372,-7.851 0.567,-4.286 1.778,-8.35 4.102,-12.025 2.444,-3.863 5.735,-6.71 10.104,-8.21 3.479,-1.194 7.041,-1.303 10.667,-0.902 4.323,0.479 8.279,1.967 12.027,4.102 0.646,0.368 1.046,0.749 1.041,1.633 -0.047,7.811 -0.026,15.622 -0.031,23.433 0,0.301 -0.051,0.602 -0.083,0.952 H -90.315 V 1.885 c 1.083,0 2.095,0.023 3.105,-0.007 1.036,-0.031 2.089,0.147 3.141,-0.138 V -8.51 c -0.343,-0.153 -0.684,-0.347 -1.049,-0.463 -2.436,-0.771 -4.911,-0.913 -7.41,-0.364 -2.73,0.6 -4.849,2.103 -6.43,4.4 -1.243,1.806 -1.997,3.814 -2.458,5.935 -0.748,3.433 -0.814,6.901 -0.528,10.395 0.204,2.483 0.684,4.887 1.698,7.164 1.695,3.802 4.502,6.31 8.673,6.973 2.735,0.435 5.46,0.152 8.119,-0.714 2.635,-0.859 5.013,-2.193 7.373,-3.859 m 36.436,-29.164 c 3.097,9.424 6.055,18.797 9.142,28.128 0.088,-0.018 0.177,-0.036 0.265,-0.054 v -38.086 c 1.344,-0.247 8.709,-0.205 9.555,0.037 v 52.663 h -12.953 c -1.511,-4.664 -3.022,-9.359 -4.555,-14.047 -1.535,-4.695 -3.01,-9.411 -4.813,-14.054 -3.025,9.382 -6.049,18.764 -9.059,28.098 h -12.972 v -52.785 h 9.391 c 0.071,0.098 0.102,0.126 0.113,0.16 0.023,0.074 0.038,0.151 0.053,0.228 0.007,0.038 0.006,0.078 0.007,0.117 0.002,0.079 0.005,0.157 0.005,0.236 0,12.286 10e-4,24.572 10e-4,36.858 0,0.118 -10e-4,0.236 0.004,0.354 0.003,0.077 0.013,0.156 0.03,0.232 0.006,0.027 0.037,0.058 0.064,0.068 0.035,0.013 0.076,0.007 0.171,0.012 3.088,-9.377 6.05,-18.811 9.152,-28.165 z m -86.346,16.852 c 0.356,21.968 8.033,41.209 23.744,56.875 16.474,16.427 36.62,24.311 59.882,23.648 C 0.042,87.96 36.321,53.051 35.748,7.115 35.476,-14.666 27.475,-33.534 12.041,-48.9 -4.381,-65.251 -24.455,-73.16 -47.621,-72.497 c -21.243,0.608 -39.599,8.581 -54.606,23.601 -15.741,15.757 -23.47,35.043 -23.764,57.541"
             style="fill:#000000;fill-opacity:1;fill-rule:nonzero;stroke:none"
             id="path332" />
        </g>
        <g
           id="g334"
           transform="translate(145.1528,101.5794)">
          <path
             d="m 0,0 v 14.764 c 0.342,0.03 0.642,0.079 0.942,0.08 1.648,0.008 3.295,0.008 4.942,0.003 2.957,-0.01 5.02,-1.541 5.766,-4.394 C 12.215,8.293 12.209,6.102 11.516,3.964 10.788,1.719 9.267,0.222 6.88,0.037 4.63,-0.137 2.355,0 0,0"
             style="fill:#000000;fill-opacity:1;fill-rule:nonzero;stroke:none"
             id="path336" />
        </g>
        <g
           id="g338"
           transform="translate(100,200)">
          <path
             d="m 0,0 c -55.229,0 -100,-44.772 -100,-100 0,-55.228 44.771,-100 100,-100 55.229,0 100,44.772 100,100 C 100,-44.772 55.229,0 0,0 m 0,-10 c 49.626,0 90,-40.374 90,-90 0,-49.626 -40.374,-90 -90,-90 -49.626,0 -90,40.374 -90,90 0,49.626 40.374,90 90,90"
             style="fill:#000000;fill-opacity:1;fill-rule:nonzero;stroke:none"
             id="path340" />
        </g>
      </g>
    </g>
  </g>
</svg>