<?xml version="1.0" standalone="no"?>
<!DOCTYPE svg PUBLIC "-//W3C//DTD SVG 20010904//EN"
 "http://www.w3.org/TR/2001/REC-SVG-20010904/DTD/svg10.dtd">
<svg version="1.0" xmlns="http://www.w3.org/2000/svg"
 width="512.000000pt" height="512.000000pt" viewBox="0 0 512.000000 512.000000"
 preserveAspectRatio="xMidYMid meet">

<g transform="translate(0.000000,512.000000) scale(0.100000,-0.100000)"
fill="#000000" stroke="none">
<path d="M2375 5034 c-16 -2 -73 -9 -125 -15 -513 -58 -1023 -303 -1412 -677
-683 -659 -931 -1655 -634 -2554 46 -141 113 -298 127 -298 5 0 38 14 73 32
l64 31 -25 56 c-42 93 -113 300 -138 406 -132 546 -53 1157 210 1641 427 783
1249 1255 2125 1221 341 -14 643 -90 947 -239 166 -81 372 -218 498 -330 6 -5
-30 -47 -90 -108 -84 -84 -98 -103 -98 -131 0 -62 21 -70 344 -134 191 -38
304 -56 321 -52 15 4 35 19 45 33 16 26 15 37 -41 323 -60 299 -72 344 -101
355 -48 18 -70 7 -160 -84 -49 -49 -93 -90 -98 -90 -4 0 -42 28 -85 63 -339
279 -765 465 -1212 532 -99 15 -470 28 -535 19z m2034 -831 c15 -79 27 -143
26 -143 -4 0 -250 50 -274 56 -23 5 -15 14 95 125 65 65 120 116 121 112 2 -5
16 -72 32 -150z"/>
<path d="M2319 4307 c-89 -33 -146 -106 -156 -201 -7 -67 -24 -84 -113 -116
-36 -12 -98 -38 -139 -56 -87 -40 -110 -42 -148 -10 -55 45 -95 60 -163 60
-47 0 -76 -6 -105 -21 -22 -12 -108 -90 -191 -175 -158 -162 -174 -186 -174
-274 0 -45 29 -113 65 -156 14 -16 25 -39 25 -52 0 -12 -20 -66 -44 -121 -24
-55 -49 -119 -56 -142 -17 -57 -39 -74 -107 -85 -77 -12 -140 -52 -178 -112
l-30 -49 0 -237 0 -237 30 -49 c38 -60 101 -100 178 -112 68 -11 90 -28 107
-85 7 -23 32 -87 56 -142 24 -55 44 -109 44 -121 0 -13 -11 -36 -25 -52 -36
-43 -65 -111 -65 -156 0 -88 16 -112 174 -274 83 -85 169 -163 191 -175 29
-16 57 -21 105 -21 68 0 110 16 163 60 16 13 38 24 51 24 12 0 66 -20 121 -44
55 -24 119 -49 142 -56 57 -17 74 -39 85 -107 12 -77 52 -140 112 -178 l49
-30 237 0 237 0 49 30 c61 38 102 103 111 174 8 71 29 91 136 131 48 18 87 36
87 39 -1 3 -24 32 -53 64 l-52 57 -76 -25 c-41 -14 -92 -40 -113 -57 -46 -37
-86 -118 -86 -171 0 -27 -7 -45 -25 -62 -24 -25 -26 -25 -215 -25 -186 0 -192
1 -214 23 -15 15 -25 40 -29 74 -12 107 -73 177 -187 214 -36 12 -108 42 -161
66 -139 62 -206 59 -309 -16 -71 -51 -77 -48 -232 107 -155 155 -158 161 -107
232 75 103 78 170 16 309 -24 53 -54 125 -66 161 -11 36 -35 83 -53 104 -37
46 -118 86 -171 86 -27 0 -45 7 -62 25 -25 24 -25 26 -25 215 0 186 1 192 23
214 15 15 40 25 74 29 107 12 177 73 214 187 12 36 42 108 66 161 62 139 59
206 -16 309 -51 71 -48 77 107 232 155 155 161 158 232 107 103 -75 170 -78
309 -16 53 24 125 54 161 66 36 11 83 35 104 53 46 37 86 118 86 171 0 27 7
45 25 62 24 25 26 25 215 25 189 0 191 0 215 -25 18 -17 25 -35 25 -62 0 -53
40 -134 86 -171 21 -18 68 -42 104 -53 36 -12 108 -42 161 -66 139 -62 206
-59 309 16 71 51 77 48 232 -107 155 -155 158 -161 107 -232 -75 -103 -78
-170 -16 -309 24 -53 54 -125 66 -161 37 -114 107 -175 214 -187 34 -4 59 -14
74 -29 22 -22 23 -28 23 -214 0 -186 -1 -192 -23 -214 -15 -15 -40 -25 -74
-29 -110 -13 -176 -72 -218 -196 l-25 -75 57 -53 c32 -29 61 -52 64 -53 4 0
21 39 39 88 42 113 56 128 127 135 74 8 139 48 178 111 l30 49 0 237 0 237
-30 49 c-38 60 -101 100 -178 112 -68 11 -90 28 -107 85 -7 23 -32 87 -56 142
-24 55 -44 109 -44 121 0 13 11 35 24 51 57 69 77 151 56 230 -12 41 -34 69
-164 201 -83 85 -169 163 -191 175 -29 16 -57 21 -105 21 -68 0 -110 -16 -163
-60 -16 -13 -38 -24 -51 -24 -12 0 -66 20 -121 44 -55 24 -119 49 -142 56 -57
17 -74 39 -85 107 -12 77 -52 140 -112 178 l-49 30 -221 2 c-164 2 -230 -1
-257 -10z"/>
<path d="M2367 3754 c-516 -80 -924 -493 -1003 -1014 -88 -584 267 -1146 836
-1325 221 -69 480 -71 693 -5 l67 21 -57 65 c-44 49 -63 63 -78 59 -93 -25
-210 -37 -315 -32 -450 22 -830 321 -955 754 -138 475 83 986 525 1213 531
272 1175 48 1426 -496 96 -207 119 -478 59 -699 -4 -15 10 -34 59 -78 l65 -57
21 67 c102 329 43 712 -157 1012 -254 381 -727 587 -1186 515z"/>
<path d="M4718 3599 l-67 -31 26 -57 c323 -719 254 -1573 -183 -2231 -544
-821 -1537 -1207 -2494 -969 -336 83 -695 267 -935 477 l-38 34 98 98 c84 84
98 104 98 131 0 62 -21 70 -344 134 -191 38 -304 56 -321 52 -15 -4 -35 -19
-45 -33 -16 -26 -15 -37 41 -323 60 -299 72 -344 101 -355 48 -18 70 -7 160
84 49 49 93 90 97 90 4 0 47 -32 95 -71 342 -274 763 -457 1213 -526 144 -22
509 -24 650 -5 802 113 1469 565 1859 1260 332 594 402 1332 186 1979 -45 135
-112 293 -124 293 -3 0 -36 -14 -73 -31z m-3878 -2570 c63 -12 121 -25 127
-28 8 -4 -30 -49 -106 -125 l-118 -118 -30 152 c-30 151 -30 151 -9 146 11 -2
73 -15 136 -27z"/>
<path d="M2392 3196 c-76 -19 -106 -44 -110 -90 -3 -36 2 -43 102 -145 l106
-107 -108 -107 c-59 -59 -111 -107 -117 -107 -5 0 -55 45 -111 101 -97 95
-104 100 -140 97 -47 -4 -71 -35 -90 -114 -18 -77 -18 -223 1 -301 53 -225
243 -415 467 -468 69 -16 222 -19 279 -6 l35 8 312 -351 c361 -407 379 -425
452 -463 50 -25 65 -28 160 -28 99 0 110 2 171 32 79 39 140 102 177 181 24
50 27 69 27 162 0 182 7 173 -531 650 l-311 274 9 41 c17 73 4 251 -24 332
-64 181 -214 330 -398 394 -81 28 -274 36 -358 15z m297 -165 c147 -46 272
-172 315 -320 20 -69 21 -202 1 -269 -9 -28 -13 -62 -10 -75 4 -16 154 -155
411 -382 442 -392 444 -394 444 -499 0 -124 -92 -216 -216 -216 -104 0 -107 3
-498 444 -229 258 -367 407 -383 410 -13 4 -47 0 -75 -9 -72 -21 -202 -19
-277 4 -186 58 -331 244 -331 425 l0 49 79 -76 c117 -115 103 -119 338 116
235 235 231 221 116 338 l-76 79 50 0 c28 0 79 -9 112 -19z"/>
<path d="M3565 1555 c-50 -49 -15 -135 55 -135 41 0 80 39 80 80 0 41 -39 80
-80 80 -19 0 -40 -9 -55 -25z"/>
</g>
</svg>
