<?xml version="1.0" standalone="no"?>
<!DOCTYPE svg PUBLIC "-//W3C//DTD SVG 20010904//EN"
 "http://www.w3.org/TR/2001/REC-SVG-20010904/DTD/svg10.dtd">
<svg version="1.0" xmlns="http://www.w3.org/2000/svg"
 width="512.000000pt" height="512.000000pt" viewBox="0 0 512.000000 512.000000"
 preserveAspectRatio="xMidYMid meet">

<g transform="translate(0.000000,512.000000) scale(0.100000,-0.100000)"
fill="#000000" stroke="none">
<path d="M2515 5114 c-133 -14 -277 -39 -399 -70 -641 -161 -1198 -609 -1501
-1209 -61 -121 -129 -293 -160 -407 -16 -55 -18 -59 -78 -90 -124 -65 -236
-207 -272 -343 -23 -88 -23 -1482 0 -1570 48 -183 207 -342 390 -390 40 -10
106 -15 201 -15 129 0 142 2 159 20 25 28 23 76 -4 103 -20 20 -34 22 -174 28
-141 5 -156 7 -212 34 -76 37 -153 113 -191 190 l-29 60 -3 735 c-3 820 -5
789 67 893 46 66 115 118 194 145 l62 22 1150 -2 1150 -3 57 -27 c68 -31 147
-103 183 -163 56 -96 56 -100 53 -871 l-3 -709 -23 -58 c-33 -81 -116 -168
-200 -209 l-66 -33 -286 -5 c-157 -3 -292 -9 -301 -13 -34 -17 -39 -54 -39
-305 0 -387 22 -387 -430 1 -188 160 -355 298 -372 305 -23 10 -71 13 -169 10
-127 -3 -140 -5 -160 -25 -27 -27 -29 -75 -4 -103 16 -18 31 -20 149 -20 l131
-1 342 -293 c189 -162 357 -299 374 -305 74 -26 166 -6 222 47 59 56 62 67 67
317 l5 230 245 5 c274 6 309 13 418 86 121 80 217 223 241 358 15 82 15 1410
0 1492 -16 88 -78 210 -140 272 -67 69 -123 107 -206 140 l-68 27 -977 3
c-538 1 -978 6 -978 11 0 16 54 139 102 233 98 192 207 336 377 500 263 255
600 428 961 493 143 26 436 31 580 11 354 -52 668 -188 935 -406 103 -84 270
-262 347 -371 244 -342 374 -806 340 -1215 -7 -75 -14 -139 -17 -142 -14 -15
-43 33 -48 81 -11 107 -88 215 -185 260 -69 32 -209 31 -270 -1 -69 -37 -127
-96 -155 -160 -14 -31 -128 -338 -253 -682 -215 -590 -228 -629 -228 -695 0
-152 94 -272 246 -311 102 -26 210 3 299 82 23 22 40 32 37 24 -129 -336 -163
-396 -252 -443 -38 -20 -57 -22 -238 -25 l-197 -3 -55 55 c-35 37 -79 68 -123
89 -63 30 -76 32 -168 32 -129 -1 -191 -24 -276 -103 -105 -97 -155 -236 -131
-365 45 -240 273 -391 502 -333 81 21 142 56 202 118 l47 48 178 0 c203 0 286
10 385 44 105 37 174 82 268 176 105 104 125 142 260 480 l102 255 59 54 c33
29 69 71 80 93 32 63 99 251 99 279 0 62 -74 96 -119 55 -10 -10 -39 -72 -63
-139 -34 -96 -51 -130 -83 -163 -57 -60 -91 -67 -266 -54 -79 6 -144 12 -145
13 -1 2 398 1100 402 1106 5 6 217 -151 245 -182 51 -55 61 -134 28 -221 -26
-71 -22 -113 13 -139 34 -25 71 -16 99 23 26 35 123 380 149 530 28 159 38
479 20 643 -60 552 -304 1050 -701 1432 -353 340 -803 561 -1279 630 -109 16
-440 28 -525 19z m391 -155 c919 -89 1685 -744 1910 -1633 66 -261 83 -589 44
-855 -28 -190 -19 -180 -98 -119 -37 29 -67 52 -68 52 -1 1 5 39 12 86 46 308
16 636 -84 937 -222 661 -768 1163 -1447 1329 -362 88 -782 69 -1134 -53 -572
-196 -1047 -664 -1246 -1226 l-28 -77 -80 0 -79 0 5 30 c12 58 80 227 138 341
407 801 1266 1275 2155 1188z m1370 -2254 c47 -28 84 -90 84 -143 0 -17 -107
-325 -237 -683 -206 -567 -241 -656 -270 -685 -79 -79 -210 -61 -267 36 -41
70 -37 84 217 778 146 401 243 652 257 667 56 59 145 72 216 30z m21 -1601
l29 -6 -93 -231 c-51 -128 -110 -256 -130 -285 -80 -117 -216 -207 -358 -237
-44 -9 -127 -15 -222 -15 l-153 0 0 80 0 80 153 0 c169 0 241 13 316 57 59 35
127 105 156 164 19 37 105 244 156 377 7 19 16 22 63 22 29 0 67 -3 83 -6z
m-1247 -449 c63 -22 116 -69 146 -130 22 -47 26 -64 22 -122 -6 -105 -53 -180
-141 -225 -137 -69 -318 7 -361 153 -20 66 -20 92 0 158 40 137 196 215 334
166z"/>
<path d="M623 2550 c-45 -18 -55 -72 -22 -114 l20 -26 1074 0 c1009 0 1074 1
1094 18 33 26 31 79 -3 109 l-27 23 -1057 -1 c-584 0 -1067 -4 -1079 -9z"/>
<path d="M605 2165 c-14 -13 -25 -36 -25 -50 0 -14 11 -37 25 -50 l24 -25
1065 0 1065 0 25 23 c36 32 39 74 6 107 -20 20 -33 20 -1090 20 l-1071 0 -24
-25z"/>
<path d="M631 1819 c-52 -21 -67 -78 -31 -117 l21 -22 908 0 c867 0 909 1 924
18 24 27 22 85 -4 108 -20 18 -51 19 -908 21 -557 1 -895 -2 -910 -8z"/>
</g>
</svg>
