<?xml version="1.0" encoding="UTF-8" standalone="no"?>
<!-- Created with Inkscape (http://www.inkscape.org/) -->

<svg
   version="1.1"
   id="svg172"
   width="266.66666"
   height="266.66666"
   viewBox="0 0 266.66666 266.66666"
   sodipodi:docname="TruChitosanIcons_Single Source.ai"
   xmlns:inkscape="http://www.inkscape.org/namespaces/inkscape"
   xmlns:sodipodi="http://sodipodi.sourceforge.net/DTD/sodipodi-0.dtd"
   xmlns="http://www.w3.org/2000/svg"
   xmlns:svg="http://www.w3.org/2000/svg">
  <defs
     id="defs176">
    <clipPath
       clipPathUnits="userSpaceOnUse"
       id="clipPath188">
      <path
         d="M 0,200 H 200 V 0 H 0 Z"
         id="path186" />
    </clipPath>
  </defs>
  <sodipodi:namedview
     id="namedview174"
     pagecolor="#505050"
     bordercolor="#eeeeee"
     borderopacity="1"
     inkscape:showpageshadow="0"
     inkscape:pageopacity="0"
     inkscape:pagecheckerboard="0"
     inkscape:deskcolor="#505050"
     showgrid="false" />
  <g
     id="g180"
     inkscape:groupmode="layer"
     inkscape:label="Page 1"
     transform="matrix(1.3333333,0,0,-1.3333333,0,266.66667)">
    <g
       id="g182">
      <g
         id="g184"
         clip-path="url(#clipPath188)">
        <g
           id="g190"
           transform="translate(155.4256,133.4923)">
          <path
             d="m 0,0 c -0.146,-6.616 -2.242,-11.97 -6.656,-16.376 -8.385,-8.368 -16.736,-16.77 -25.147,-25.112 -3.537,-3.508 -7.853,-5.509 -12.807,-6.083 -6.248,-0.724 -11.882,0.798 -16.838,4.701 -0.706,0.556 -1.406,1.14 -2.009,1.802 -2.109,2.318 -1.669,5.753 0.914,7.445 1.569,1.028 3.776,1.022 5.33,-0.04 0.418,-0.286 0.813,-0.616 1.177,-0.968 4.549,-4.386 11.79,-4.651 16.623,-0.591 0.539,0.453 1.059,0.932 1.557,1.43 8.104,8.094 16.218,16.179 24.297,24.298 2.899,2.912 4.22,6.437 3.783,10.572 -0.598,5.666 -5.66,10.665 -11.304,11.221 -4.144,0.408 -7.621,-0.948 -10.524,-3.842 -7.864,-7.835 -15.705,-15.693 -23.559,-23.539 -1.626,-1.623 -3.767,-2.031 -5.71,-1.105 -3.323,1.584 -3.439,5.801 -1.299,7.908 6.429,6.329 12.779,12.739 19.16,19.118 1.637,1.636 3.252,3.294 4.914,4.904 3.926,3.801 8.625,5.851 14.086,6.208 6.206,0.406 11.666,-1.412 16.353,-5.466 C -3.66,13.027 -1.245,8.637 -0.367,3.426 -0.153,2.157 -0.09,0.864 0,0"
             style="fill:#000000;fill-opacity:1;fill-rule:nonzero;stroke:none"
             id="path192" />
        </g>
        <g
           id="g194"
           transform="translate(44.8138,67.596)">
          <path
             d="m 0,0 c 0.089,6.086 2.234,11.411 6.651,15.815 8.391,8.364 16.75,16.76 25.146,25.118 3.296,3.282 7.307,5.232 11.889,5.935 4.639,0.713 9.134,0.183 13.404,-1.863 2.465,-1.182 4.672,-2.724 6.503,-4.76 1.433,-1.593 1.54,-4.145 0.218,-5.972 -1.358,-1.878 -3.774,-2.539 -5.862,-1.584 -0.593,0.271 -1.177,0.651 -1.637,1.109 C 51.35,38.746 43.377,38.766 38.354,33.73 30.071,25.425 21.733,17.175 13.486,8.834 9.655,4.96 8.648,0.308 10.563,-4.803 c 1.808,-4.829 6.631,-8.121 11.742,-8.167 3.677,-0.034 6.773,1.407 9.356,3.989 7.825,7.82 15.652,15.638 23.469,23.466 1.435,1.438 3.117,1.918 5.053,1.353 3.342,-0.977 4.548,-5.175 2.263,-7.8 C 62.24,7.802 62.006,7.59 61.784,7.369 54.099,-0.314 46.391,-7.974 38.738,-15.689 c -3.753,-3.783 -8.182,-6.09 -13.491,-6.73 -6.404,-0.771 -12.145,0.824 -17.1,4.918 C 2.721,-13.018 0.073,-7.159 0,0"
             style="fill:#000000;fill-opacity:1;fill-rule:nonzero;stroke:none"
             id="path196" />
        </g>
        <g
           id="g198"
           transform="translate(100,200)">
          <path
             d="m 0,0 c -55.228,0 -100,-44.772 -100,-100 0,-55.228 44.772,-100 100,-100 55.228,0 100,44.772 100,100 C 100,-44.772 55.228,0 0,0 m 0,-10 c 49.626,0 90,-40.374 90,-90 0,-49.626 -40.374,-90 -90,-90 -49.626,0 -90,40.374 -90,90 0,49.626 40.374,90 90,90"
             style="fill:#000000;fill-opacity:1;fill-rule:nonzero;stroke:none"
             id="path200" />
        </g>
      </g>
    </g>
  </g>
</svg>