<?xml version="1.0" encoding="UTF-8" standalone="no"?>
<!-- Created with Inkscape (http://www.inkscape.org/) -->

<svg
   version="1.1"
   id="svg2"
   width="266.66666"
   height="266.66666"
   viewBox="0 0 266.66666 266.66666"
   sodipodi:docname="TruChitosanIcons_USP NF.ai"
   xmlns:inkscape="http://www.inkscape.org/namespaces/inkscape"
   xmlns:sodipodi="http://sodipodi.sourceforge.net/DTD/sodipodi-0.dtd"
   xmlns="http://www.w3.org/2000/svg"
   xmlns:svg="http://www.w3.org/2000/svg">
  <defs
     id="defs6">
    <clipPath
       clipPathUnits="userSpaceOnUse"
       id="clipPath18">
      <path
         d="M 0,200 H 200 V 0 H 0 Z"
         id="path16" />
    </clipPath>
  </defs>
  <sodipodi:namedview
     id="namedview4"
     pagecolor="#505050"
     bordercolor="#eeeeee"
     borderopacity="1"
     inkscape:showpageshadow="0"
     inkscape:pageopacity="0"
     inkscape:pagecheckerboard="0"
     inkscape:deskcolor="#505050"
     showgrid="false" />
  <g
     id="g10"
     inkscape:groupmode="layer"
     inkscape:label="Page 1"
     transform="matrix(1.3333333,0,0,-1.3333333,0,266.66667)">
    <g
       id="g12">
      <g
         id="g14"
         clip-path="url(#clipPath18)">
        <g
           id="g20"
           transform="translate(100,200)">
          <path
             d="m 0,0 c -55.228,0 -100,-44.772 -100,-100 0,-55.228 44.772,-100 100,-100 55.228,0 100,44.772 100,100 C 100,-44.772 55.228,0 0,0 m 0,-10 c 49.626,0 90,-40.374 90,-90 0,-49.626 -40.374,-90 -90,-90 -49.626,0 -90,40.374 -90,90 0,49.626 40.374,90 90,90"
             style="fill:#000000;fill-opacity:1;fill-rule:nonzero;stroke:none"
             id="path22" />
        </g>
        <g
           id="g24"
           transform="translate(130.8921,93.6721)">
          <path
             d="m 0,0 c 3.294,0 5.307,2.867 5.307,7.198 0,4.21 -1.708,7.26 -5.185,7.26 -2.196,0 -4.087,-1.769 -4.454,-3.904 C -4.454,10.127 -4.454,9.639 -4.454,9.15 V 5.43 c 0,-0.671 0.061,-1.282 0.183,-1.83 C -3.843,1.647 -2.196,0 0,0"
             style="fill:#000000;fill-opacity:1;fill-rule:nonzero;stroke:none"
             id="path26" />
        </g>
        <g
           id="g28"
           transform="translate(98.623,85.3753)">
          <path
             d="m 0,0 c -4.148,0 -7.87,0.854 -10.249,2.074 l 1.83,7.748 c 1.708,-1.037 5.612,-2.258 8.358,-2.258 2.318,0 3.233,0.55 3.233,1.648 0,1.099 -0.671,1.586 -3.904,2.623 -6.589,2.074 -8.846,5.674 -8.785,9.151 0,5.978 5.063,10.31 12.933,10.31 3.721,0 7.016,-0.793 8.968,-1.708 l -1.769,-7.443 c -1.404,0.671 -4.21,1.647 -6.65,1.647 -1.891,0 -2.989,-0.488 -2.989,-1.708 0,-0.976 0.976,-1.586 4.514,-2.745 5.918,-1.952 8.175,-5.003 8.236,-9.334 C 13.726,4.271 9.272,0 0,0 m 16.591,30.625 h 9.455 l 0.489,-3.782 h 0.121 c 2.071,2.685 5.073,4.175 8.708,4.406 L 1.016,72.815 -33.847,30.625 h 1.639 V 14.702 c 0,-3.843 1.282,-5.917 3.844,-5.917 2.074,0 3.111,1.403 3.538,2.562 0.244,0.427 0.305,0.976 0.305,1.587 V 30.625 H -13.54 V 10.859 c 0,-4.27 0.122,-7.686 0.244,-10.249 h -9.455 l -0.489,3.965 h -0.244 c -1.098,-1.646 -3.721,-4.636 -9.089,-4.636 -6.711,0 -10.615,4.332 -10.615,12.995 v 6.387 l -24.547,-29.706 h 84.57 v 30.822 c 0,3.965 -0.122,7.381 -0.244,10.188"
             style="fill:#000000;fill-opacity:1;fill-rule:nonzero;stroke:none"
             id="path30" />
        </g>
        <g
           id="g32"
           transform="translate(133.6982,85.3147)">
          <path
             d="M 0,0 C -3.417,0 -6.04,1.342 -7.138,2.867 H -7.26 V -10.324 H 34.692 L 13.629,15.165 C 13.251,4.805 6.347,0 0,0"
             style="fill:#000000;fill-opacity:1;fill-rule:nonzero;stroke:none"
             id="path34" />
        </g>
        <g
           id="g36"
           transform="translate(175.5356,80.8643)">
          <path
             d="m 0,0 h 0.659 c 0.77,0 1.393,0.256 1.393,0.879 0,0.55 -0.403,0.916 -1.283,0.916 C 0.403,1.795 0.147,1.758 0,1.722 Z m -0.037,-3.407 h -1.392 v 6.008 c 0.55,0.11 1.319,0.183 2.308,0.183 1.136,0 1.649,-0.183 2.088,-0.439 0.33,-0.257 0.587,-0.733 0.587,-1.319 0,-0.66 -0.513,-1.173 -1.246,-1.393 V -0.44 C 2.894,-0.66 3.224,-1.1 3.407,-1.905 3.59,-2.821 3.7,-3.187 3.847,-3.407 H 2.345 c -0.183,0.22 -0.293,0.769 -0.477,1.465 -0.11,0.659 -0.476,0.953 -1.245,0.953 h -0.66 z m -3.7,3.15 c 0,-2.674 1.979,-4.799 4.69,-4.799 2.637,0 4.579,2.125 4.579,4.763 0,2.674 -1.942,4.836 -4.616,4.836 -2.674,0 -4.653,-2.162 -4.653,-4.8 m 10.807,0 c 0,-3.407 -2.674,-6.081 -6.154,-6.081 -3.444,0 -6.191,2.674 -6.191,6.081 0,3.334 2.747,6.008 6.191,6.008 3.48,0 6.154,-2.674 6.154,-6.008"
             style="fill:#000000;fill-opacity:1;fill-rule:nonzero;stroke:none"
             id="path38" />
        </g>
      </g>
    </g>
  </g>
</svg>